<svg width="33" height="36" viewBox="0 0 33 36" fill="none" xmlns="http://www.w3.org/2000/svg">
<rect width="7.23491" height="5.75769" rx="2.87885" transform="matrix(0.73846 0.674297 -0.588518 0.808484 23.5719 1.86728)" fill="#B5B5B5"/>
<rect width="7.70732" height="5.37394" rx="2.68697" transform="matrix(0.115873 0.993264 -0.989462 0.144795 31.55 11.7382)" fill="#B5B5B5"/>
<rect width="7.35594" height="5.66413" rx="2.83206" transform="matrix(-0.631857 0.775085 -0.699162 -0.714963 30.4978 26.8768)" fill="#B5B5B5"/>
<rect width="6.89855" height="6.00234" rx="3.00117" transform="matrix(-0.996228 0.0867709 -0.0692684 -0.997598 21.3083 35.2262)" fill="#B5B5B5"/>
<rect width="7.23491" height="5.75769" rx="2.87885" transform="matrix(0.73846 0.674297 -0.588518 0.808484 7.43011 24.6778)" fill="#B5B5B5"/>
<rect width="7.70732" height="5.37394" rx="2.68697" transform="matrix(0.115873 0.993264 -0.989462 0.144795 5.83044 15.9068)" fill="#B5B5B5"/>
<rect width="7.35594" height="5.66413" rx="2.83206" transform="matrix(-0.631857 0.775085 -0.699162 -0.714963 11.0665 7.54993)" fill="#B5B5B5"/>
<rect width="6.89855" height="6.00234" rx="3.00117" transform="matrix(-0.996228 0.0867709 -0.0692684 -0.997598 18.9362 6.24167)" fill="#B5B5B5"/>
<ellipse cx="16.525" cy="18.075" rx="13.8531" ry="15.5155" fill="#D9D9D9"/>
</svg>
