<svg width="33" height="37" viewBox="0 0 33 37" fill="none" xmlns="http://www.w3.org/2000/svg">
<rect width="7.35786" height="5.66201" rx="2.831" transform="matrix(0.607825 0.794071 -0.721431 0.692486 25.9648 3.5559)" fill="#B5B5B5"/>
<rect width="7.70732" height="5.37394" rx="2.68697" transform="matrix(0.115873 0.993264 -0.989462 0.144795 31.45 11.7882)" fill="#B5B5B5"/>
<rect width="7.04814" height="5.89209" rx="2.94605" transform="matrix(-0.927299 0.374322 -0.300639 -0.953738 24.9935 33.1265)" fill="#B5B5B5"/>
<rect width="7.44173" height="5.59558" rx="2.79779" transform="matrix(-0.530035 0.847976 -0.786302 -0.617842 31.3129 24.8748)" fill="#B5B5B5"/>
<rect width="6.94498" height="5.96768" rx="2.98384" transform="matrix(-0.956962 -0.290211 0.245598 -0.969372 15.5901 36.0578)" fill="#B5B5B5"/>
<rect width="7.35786" height="5.66201" rx="2.831" transform="matrix(0.607825 0.794071 -0.721431 0.692486 6.40393 22.8591)" fill="#B5B5B5"/>
<rect width="7.70732" height="5.37394" rx="2.68697" transform="matrix(0.115873 0.993264 -0.989462 0.144795 5.73047 15.9568)" fill="#B5B5B5"/>
<rect width="7.04814" height="5.89209" rx="2.94605" transform="matrix(-0.927299 0.374322 -0.300639 -0.953738 16.0699 6.03326)" fill="#B5B5B5"/>
<rect width="7.44173" height="5.59558" rx="2.79779" transform="matrix(-0.530035 0.847976 -0.786302 -0.617842 9.7876 8.45052)" fill="#B5B5B5"/>
<rect width="6.94498" height="5.96768" rx="2.98384" transform="matrix(-0.956962 -0.290211 0.245598 -0.969372 22.3466 7.92112)" fill="#B5B5B5"/>
<ellipse cx="16.425" cy="18.125" rx="13.8531" ry="15.5155" fill="#D9D9D9"/>
</svg>
