<svg width="35" height="39" viewBox="0 0 35 39" fill="none" xmlns="http://www.w3.org/2000/svg">
<rect width="11.294" height="5.95312" rx="2.97656" transform="matrix(0.945466 -0.325721 0.264833 0.964294 7.15863 4.66828)" fill="#B5B5B5"/>
<rect width="11.8489" height="5.69921" rx="2.84961" transform="matrix(0.672764 0.739857 -0.659227 0.751944 24.5 2.42961)" fill="#B5B5B5"/>
<rect width="12.4367" height="5.403" rx="2.7015" transform="matrix(-0.219293 0.975659 -0.962476 -0.271365 34.4611 17.8068)" fill="#B5B5B5"/>
<rect width="11.294" height="5.95312" rx="2.97656" transform="matrix(0.945466 -0.325721 0.264833 0.964294 15.6 32.9655)" fill="#B5B5B5"/>
<rect width="11.8489" height="5.69921" rx="2.84961" transform="matrix(0.672764 0.739857 -0.659227 0.751944 6.29895 24.214)" fill="#B5B5B5"/>
<rect width="12.4367" height="5.403" rx="2.7015" transform="matrix(-0.219293 0.975659 -0.962476 -0.271365 8.47992 11.2211)" fill="#B5B5B5"/>
<ellipse cx="17.475" cy="20.075" rx="13.8531" ry="15.5155" fill="#D9D9D9"/>
</svg>
